<?xml version="1.0" encoding="UTF-8"?>
<svg width="20px" height="20px" viewBox="0 0 20 20" version="1.1" xmlns="http://www.w3.org/2000/svg" xmlns:xlink="http://www.w3.org/1999/xlink">
    <title>icon_setting</title>
    <g id="页面-1" stroke="none" stroke-width="1" fill="none" fill-rule="evenodd">
        <g id="快捷下单弹窗-白" transform="translate(-453.000000, -246.000000)" fill="#777E90" fill-rule="nonzero">
            <g id="下单弹窗" transform="translate(109.000000, 177.000000)">
                <g id="btn_setting_nor" transform="translate(340.000000, 65.000000)">
                    <g id="icon_setting" transform="translate(4.000000, 4.000000)">
                        <rect id="矩形" opacity="0" x="0" y="0" width="20" height="20"></rect>
                        <path d="M18.0625,12.2207031 L16.7832031,11.1269531 C16.84375,10.7558594 16.875,10.3769531 16.875,9.99804688 C16.875,9.61914062 16.84375,9.24023438 16.7832031,8.86914062 L18.0625,7.77539062 C18.2597656,7.60742187 18.3320312,7.33398437 18.2441406,7.08789062 L18.2265625,7.03710938 C17.8730469,6.05078125 17.3496094,5.14453125 16.6699219,4.34375 L16.6347656,4.30273438 C16.4667969,4.10546875 16.1953125,4.03125 15.9492187,4.1171875 L14.3613281,4.68164062 C13.7753906,4.20117188 13.1210938,3.82226562 12.4140625,3.55664062 L12.1074219,1.89648438 C12.0605469,1.640625 11.859375,1.44140625 11.6035156,1.39453125 L11.5507812,1.38476562 C10.5332031,1.20117188 9.46289062,1.20117188 8.4453125,1.38476562 L8.39257812,1.39453125 C8.13671875,1.44140625 7.93554687,1.640625 7.88867187,1.89648438 L7.58007812,3.56445312 C6.87890625,3.83007812 6.22851562,4.20703125 5.64648437,4.68554688 L4.046875,4.1171875 C3.80273437,4.03125 3.52929687,4.10351562 3.36132812,4.30273438 L3.32617187,4.34375 C2.64648437,5.14648438 2.12304687,6.05273438 1.76953125,7.03710938 L1.75195312,7.08789063 C1.6640625,7.33203125 1.73632812,7.60546875 1.93359375,7.77539063 L3.22851562,8.88085938 C3.16796875,9.24804688 3.13867187,9.62304688 3.13867187,9.99609375 C3.13867187,10.3710938 3.16796875,10.7460938 3.22851562,11.1113281 L1.93359375,12.2167969 C1.73632813,12.3847656 1.6640625,12.6582031 1.75195313,12.9042969 L1.76953125,12.9550781 C2.12304688,13.9394531 2.64648438,14.8476562 3.32617188,15.6484375 L3.36132813,15.6894531 C3.52929688,15.8867188 3.80078125,15.9609375 4.046875,15.875 L5.64648438,15.3066406 C6.22851562,15.7851562 6.87890625,16.1640625 7.58007812,16.4277344 L7.88867188,18.0957031 C7.93554687,18.3515625 8.13671875,18.5507812 8.39257813,18.5976562 L8.4453125,18.6074219 C8.95507812,18.6992188 9.4765625,18.7460938 9.99804688,18.7460938 C10.5195312,18.7460938 11.0429688,18.6992188 11.5507812,18.6074219 L11.6035156,18.5976562 C11.859375,18.5507812 12.0605469,18.3515625 12.1074219,18.0957031 L12.4140625,16.4355469 C13.1210938,16.1699219 13.7753906,15.7929687 14.3613281,15.3105469 L15.9492188,15.875 C16.1933594,15.9609375 16.4667969,15.8886719 16.6347656,15.6894531 L16.6699219,15.6484375 C17.3496094,14.8457031 17.8730469,13.9394531 18.2265625,12.9550781 L18.2441406,12.9042969 C18.3320313,12.6640625 18.2597656,12.390625 18.0625,12.2207031 L18.0625,12.2207031 Z M15.3964844,9.09960937 C15.4453125,9.39453125 15.4707031,9.69726562 15.4707031,10 C15.4707031,10.3027344 15.4453125,10.6054688 15.3964844,10.9003906 L15.2675781,11.6835938 L16.7265625,12.9316406 C16.5058594,13.4414062 16.2265625,13.921875 15.8945313,14.3691406 L14.0820313,13.7265625 L13.46875,14.2304687 C13.0019531,14.6132812 12.4824219,14.9140625 11.9199219,15.125 L11.1757813,15.4042969 L10.8261719,17.2988281 C10.2773438,17.3613281 9.71679688,17.3613281 9.16601563,17.2988281 L8.81640625,15.4003906 L8.078125,15.1171875 C7.52148438,14.90625 7.00390625,14.6054687 6.54101563,14.2246094 L5.92773438,13.71875 L4.10351563,14.3671875 C3.77148438,13.9199219 3.49414063,13.4375 3.27148438,12.9296875 L4.74609375,11.6699219 L4.61914063,10.8886719 C4.57226563,10.5976562 4.546875,10.296875 4.546875,10 C4.546875,9.70117187 4.5703125,9.40234375 4.61914063,9.11132812 L4.74609375,8.33007812 L3.27148438,7.0703125 C3.4921875,6.56054687 3.77148438,6.08007812 4.10351563,5.6328125 L5.92773438,6.28125 L6.54101563,5.77539062 C7.00390625,5.39453125 7.52148438,5.09375 8.078125,4.8828125 L8.81835938,4.60351562 L9.16796875,2.70507812 C9.71679688,2.64257812 10.2773438,2.64257812 10.828125,2.70507812 L11.1777344,4.59960937 L11.921875,4.87890625 C12.4824219,5.08984375 13.0039063,5.390625 13.4707031,5.7734375 L14.0839844,6.27734375 L15.8964844,5.63476562 C16.2285156,6.08203125 16.5058594,6.56445312 16.7285156,7.07226562 L15.2695313,8.3203125 L15.3964844,9.09960937 Z M10,6.3671875 C8.1015625,6.3671875 6.5625,7.90625 6.5625,9.8046875 C6.5625,11.703125 8.1015625,13.2421875 10,13.2421875 C11.8984375,13.2421875 13.4375,11.703125 13.4375,9.8046875 C13.4375,7.90625 11.8984375,6.3671875 10,6.3671875 Z M11.546875,11.3515625 C11.1328125,11.7636719 10.5839844,11.9921875 10,11.9921875 C9.41601562,11.9921875 8.8671875,11.7636719 8.453125,11.3515625 C8.04101562,10.9375 7.8125,10.3886719 7.8125,9.8046875 C7.8125,9.22070312 8.04101562,8.671875 8.453125,8.2578125 C8.8671875,7.84375 9.41601562,7.6171875 10,7.6171875 C10.5839844,7.6171875 11.1328125,7.84375 11.546875,8.2578125 C11.9589844,8.671875 12.1875,9.22070312 12.1875,9.8046875 C12.1875,10.3886719 11.9589844,10.9375 11.546875,11.3515625 Z" id="形状"></path>
                    </g>
                </g>
            </g>
        </g>
    </g>
</svg>